<svg xmlns="http://www.w3.org/2000/svg" viewBox="0 0 500 500" width="100%" height="100%">
  <path d="M 250,55 
           L 303,165 
           C 313,175 325,178 338,178 
           L 455,185 
           C 470,186 473,205 462,215 
           L 373,292 
           C 365,300 361,312 364,324 
           L 395,435 
           C 400,450 383,460 372,452 
           L 268,392 
           C 257,385 243,385 232,392 
           L 128,452 
           C 117,460 100,450 105,435 
           L 136,324 
           C 139,312 135,300 127,292 
           L 38,215 
           C 27,205 30,186 45,185 
           L 162,178 
           C 175,178 187,175 197,165 
           Z" 
        fill="#FE4A49" 
        stroke="#FE4A49" 
        stroke-width="15" 
        stroke-linejoin="round" 
        stroke-linecap="round"/>
</svg>
